<svg width="30" height="30" viewBox="0 0 30 30" fill="none" xmlns="http://www.w3.org/2000/svg">
<path d="M9.05 2.5H6.675C3.9375 2.5 2.5 3.9375 2.5 6.6625V9.0375C2.5 11.7625 3.9375 13.2 6.6625 13.2H9.0375C11.7625 13.2 13.2 11.7625 13.2 9.0375V6.6625C13.2125 3.9375 11.775 2.5 9.05 2.5Z" fill="#F0F0F0"/>
<path d="M23.3368 2.5H20.9618C18.2368 2.5 16.7993 3.9375 16.7993 6.6625V9.0375C16.7993 11.7625 18.2368 13.2 20.9618 13.2H23.3368C26.0618 13.2 27.4993 11.7625 27.4993 9.0375V6.6625C27.4993 3.9375 26.0618 2.5 23.3368 2.5Z" fill="#F0F0F0"/>
<path d="M23.3368 16.7871H20.9618C18.2368 16.7871 16.7993 18.2246 16.7993 20.9496V23.3246C16.7993 26.0496 18.2368 27.4871 20.9618 27.4871H23.3368C26.0618 27.4871 27.4993 26.0496 27.4993 23.3246V20.9496C27.4993 18.2246 26.0618 16.7871 23.3368 16.7871Z" fill="#F0F0F0"/>
<path d="M9.05 16.7871H6.675C3.9375 16.7871 2.5 18.2246 2.5 20.9496V23.3246C2.5 26.0621 3.9375 27.4996 6.6625 27.4996H9.0375C11.7625 27.4996 13.2 26.0621 13.2 23.3371V20.9621C13.2125 18.2246 11.775 16.7871 9.05 16.7871Z" fill="#F0F0F0"/>
</svg>
