<svg width="189" height="36" viewBox="0 0 189 36" fill="none" xmlns="http://www.w3.org/2000/svg">
<path d="M12.5265 9.1706C14.6374 9.1706 16.5718 9.94412 18.0758 11.2224L20.1198 8.75309C18.0648 7.00252 15.4161 5.94531 12.5273 5.94531C6.0095 5.94531 0.70739 11.3193 0.70739 17.9242C0.70739 24.5306 6.00987 29.9046 12.528 29.9024C15.4168 29.9024 18.0651 28.8452 20.1201 27.0946L18.0762 24.6253C16.5236 25.9517 14.5579 26.6786 12.5273 26.6771C7.7651 26.6771 3.89013 22.7506 3.89013 17.9242C3.88976 13.0982 7.7651 9.16948 12.528 9.1706H12.5265ZM77.9531 6.63719H71.5891C71.1673 6.63729 70.7628 6.80715 70.4646 7.10942C70.1663 7.41168 69.9987 7.82162 69.9986 8.24909V27.599C69.9989 28.0264 70.1666 28.4363 70.4648 28.7385C70.7629 29.0408 71.1673 29.2108 71.5891 29.2112H77.9534C84.0949 29.2112 89.0906 24.1478 89.0906 17.9238C89.0906 11.6992 84.0957 6.6357 77.952 6.63719H77.9534H77.9531ZM77.9531 25.9871H73.1803V9.86211H77.9534C82.3401 9.86211 85.9068 13.4803 85.9068 17.925C85.9086 22.3726 82.3401 25.9859 77.952 25.9871H77.9534H77.9531ZM97.7057 8.24984V27.5997C97.7061 28.0271 97.8738 28.437 98.1721 28.7392C98.4704 29.0414 98.8748 29.2113 99.2965 29.2116H112.556V25.9871H100.888V19.5365H108.313V16.3119H100.888V9.86173H112.555V6.63719H99.2965C99.0877 6.63699 98.8808 6.67856 98.6879 6.75952C98.4949 6.84047 98.3196 6.95922 98.172 7.10896C98.0244 7.2587 97.9074 7.43648 97.8277 7.63212C97.748 7.82777 97.7072 8.03743 97.7075 8.24909H97.7057V8.24984ZM145.867 8.24984V27.5997C145.867 28.0271 146.035 28.437 146.333 28.7392C146.631 29.0414 147.036 29.2113 147.458 29.2116H160.716V25.9871H149.049V19.5365H156.474V16.3119H149.049V9.86173H160.716V6.63719H147.458C147.249 6.63695 147.042 6.67847 146.849 6.75938C146.656 6.8403 146.481 6.95901 146.333 7.10874C146.185 7.25846 146.068 7.43625 145.988 7.63193C145.908 7.8276 145.867 8.03733 145.868 8.24909H145.867L145.867 8.24984ZM130.725 6.63719H123.83C123.408 6.63729 123.004 6.80715 122.706 7.10942C122.407 7.41168 122.24 7.82162 122.24 8.24909V29.2116H125.422V19.5365H130.726C134.235 19.5365 137.09 16.643 137.09 13.087C137.089 9.53071 134.234 6.6357 130.724 6.63719H130.725ZM130.725 16.3116H125.421V9.86248H130.725C132.48 9.86248 133.906 11.3077 133.906 13.087C133.906 14.8663 132.48 16.3131 130.724 16.3116H130.725ZM185.592 6.63719V23.1457L172.495 7.21686C172.286 6.96213 172.004 6.77898 171.688 6.69239C171.373 6.6058 171.038 6.61998 170.731 6.733C170.424 6.84585 170.158 7.05192 169.97 7.32317C169.782 7.59442 169.681 7.91771 169.681 8.24909V29.2116H172.864V12.7034L185.961 28.6316C186.17 28.8861 186.451 29.069 186.766 29.1555C187.081 29.2419 187.415 29.2277 187.722 29.1147C188.03 29.0018 188.296 28.7958 188.483 28.5245C188.671 28.2533 188.772 27.93 188.772 27.5986V6.63607H185.592V6.63719ZM60.9595 12.4268C60.9517 12.3851 60.9448 12.3433 60.9337 12.3027C60.9271 12.2781 60.919 12.255 60.9109 12.2307C60.8998 12.1945 60.8873 12.1587 60.8734 12.1234C60.8635 12.0988 60.8521 12.0749 60.841 12.0514C60.8258 12.0181 60.8093 11.9854 60.7914 11.9534C60.7785 11.9299 60.7638 11.9075 60.7498 11.8848C60.6964 11.801 60.6348 11.7228 60.5659 11.6514C60.5468 11.6321 60.5276 11.6123 60.507 11.5933C60.4806 11.5688 60.4531 11.5456 60.4247 11.5236C60.4026 11.5064 60.3813 11.4889 60.3585 11.4729C60.35 11.4669 60.343 11.4598 60.3342 11.4542L44.8221 0.973178C44.5827 0.811185 44.3012 0.724731 44.0133 0.724731C43.7254 0.724731 43.4439 0.811185 43.2045 0.973178L27.6917 11.4539C27.6829 11.4595 27.6759 11.4666 27.6674 11.4725C27.6446 11.4889 27.6233 11.5061 27.6012 11.5228C27.5509 11.5613 27.5037 11.604 27.4603 11.6503C27.3904 11.7213 27.3286 11.8001 27.2761 11.8852C27.2617 11.9079 27.2477 11.9299 27.2345 11.9538C27.2161 11.9858 27.2003 12.0186 27.1852 12.0511C27.1742 12.0749 27.1624 12.0988 27.1525 12.123C27.1385 12.1583 27.1259 12.1941 27.1146 12.2304C27.1072 12.2546 27.0988 12.2781 27.0925 12.3001C27.0815 12.3407 27.0741 12.3821 27.0668 12.4242C27.0627 12.4455 27.0576 12.4663 27.055 12.488C27.0466 12.552 27.0423 12.6165 27.0421 12.6811V23.1647C27.0421 23.2296 27.0465 23.2945 27.0557 23.3578C27.0591 23.381 27.0649 23.3996 27.0694 23.422C27.0767 23.4637 27.0833 23.5051 27.0969 23.5468C27.1032 23.57 27.1105 23.5934 27.1197 23.6188C27.1311 23.6561 27.1425 23.693 27.1565 23.7269C27.1661 23.75 27.1793 23.7731 27.1882 23.7962C27.2293 23.8872 27.2816 23.9727 27.3437 24.0505C27.3596 24.0736 27.3757 24.0922 27.3941 24.1146C27.4173 24.1422 27.4397 24.1701 27.467 24.1947C27.4857 24.2134 27.5037 24.2361 27.5266 24.2503C27.553 24.2734 27.5817 24.2965 27.6089 24.3207C27.631 24.3394 27.6546 24.3532 27.6729 24.3711C27.6814 24.3755 27.6866 24.3849 27.6957 24.3893L43.2045 34.8756C43.4494 35.0426 43.7305 35.1261 44.0137 35.1246C44.3016 35.1241 44.5831 35.0376 44.8229 34.876L60.3357 24.3945C60.3441 24.3893 60.3515 24.3826 60.3596 24.3767C60.3827 24.3603 60.4041 24.3431 60.4258 24.326C60.4545 24.3036 60.4824 24.2797 60.5089 24.2559C60.5288 24.2376 60.5479 24.2178 60.5674 24.1985C60.6113 24.1534 60.652 24.1052 60.6891 24.0542C60.7258 24.0033 60.7602 23.9506 60.7921 23.8965C60.8109 23.8645 60.8271 23.8313 60.8425 23.7981C60.8535 23.7742 60.8646 23.7508 60.8749 23.7265C60.8887 23.691 60.9012 23.6549 60.9124 23.6184C60.9201 23.5946 60.9282 23.5711 60.9352 23.5468C60.9459 23.5058 60.9532 23.4645 60.9609 23.4227C60.9646 23.4015 60.9701 23.3806 60.972 23.359C60.9804 23.2948 60.9852 23.2311 60.9852 23.1655V12.684C60.9848 12.6195 60.9805 12.555 60.9723 12.4909C60.9687 12.4682 60.9617 12.4496 60.9573 12.4268H60.9595ZM44.0129 21.4216L38.8546 17.925L44.0129 14.4275L49.172 17.925L44.0129 21.4216ZM42.5549 11.8598L36.2314 16.1464L31.1271 12.6859L42.5553 4.96453L42.5549 11.8598ZM33.6081 17.9242L29.9597 20.3976V15.4508L33.6081 17.9242ZM36.2314 19.7042L42.5549 23.9905V30.885L31.1268 23.1629L36.2314 19.7027V19.7039V19.7042ZM45.4717 23.9893L51.7953 19.7031L56.8998 23.1633L45.4717 30.8846V23.9893ZM54.4185 17.9253L58.0673 15.4516V20.3983L54.4185 17.9242V17.9253ZM51.7953 16.1464L45.4717 11.8602V4.96453L56.8998 12.6859L51.7953 16.1464Z" fill="#8397C7"/>
</svg>
