<svg width="145" height="66" viewBox="0 0 145 66" fill="none" xmlns="http://www.w3.org/2000/svg">
<path d="M98.4306 18.5545H81.4153L67.3014 41.0824V0H52.856V64.9024H65.4915L74.6796 51.9678L83.8677 64.9024H102.348L83.2114 39.971L98.4306 18.5545ZM120.841 17.4222C107.501 17.4222 96.6828 28.2937 96.6828 41.7146C96.6828 55.1355 107.494 66.007 120.841 66.007C134.188 66.007 145 55.1355 145 41.7146C145 28.2937 134.181 17.4222 120.841 17.4222ZM120.841 52.0095C115.508 52.0095 111.177 47.6817 111.177 41.7146C111.177 35.7474 115.501 31.3849 120.841 31.3849C126.182 31.3849 130.506 35.7404 130.506 41.7146C130.506 47.6887 126.182 52.0164 120.841 52.0164V52.0095ZM24.1517 17.4222C10.8116 17.4222 0 28.3006 0 41.7146C0 55.1285 10.8185 66 24.1586 66C34.2103 66 43.205 59.7411 46.7559 50.2867H32.0618C30.5489 52.0928 28.58 53.371 24.2761 53.371C19.7649 53.371 16.1173 50.9883 14.4592 46.2854H47.8751C50.3828 33.1007 41.7819 20.3745 28.6767 17.8529C27.1845 17.568 25.6715 17.4222 24.1517 17.4222ZM14.4592 37.1298C15.9998 32.7534 19.7511 30.1415 24.1517 30.1415C28.5523 30.1415 32.3036 32.7534 33.8442 37.1298H14.4592Z" fill="#8397C7"/>
</svg>
