<svg width="101" height="88" viewBox="0 0 101 88" fill="none" xmlns="http://www.w3.org/2000/svg">
<path fill-rule="evenodd" clip-rule="evenodd" d="M19.4307 30.9022L34.3818 10.2981C38.5654 4.58424 42.1162 -0.138024 50.2945 0.000149587C59.1715 0.154578 62.6072 5.42954 67.0703 11.6636C71.0649 17.2474 75.0678 22.8231 79.0624 28.4069C85.3174 37.1037 93.4217 42.785 83.468 53.0667C89.3696 57.0981 93.4135 63.1127 95.7642 70.9236L101 88.0002H82.5721V68.6072C82.5721 66.7134 81.0022 65.1609 79.0871 65.1609H21.9129C19.9978 65.1609 18.4279 66.7134 18.4279 68.6072V88.0002H0C4.21655 72.2809 8.90983 57.6752 17.795 52.8148C14.8936 50.7747 13.3072 48.507 12.8058 46.0524C11.6715 40.4036 16.3155 35.2018 19.4307 30.9022ZM48.7657 56.4154H52.3494L51.6096 58.5693C55.8097 58.2848 59.8537 55.4482 62.0072 49.9619C64.2839 44.1586 66.7498 47.1172 66.5278 37.2175L66.3634 29.7643C66.5278 25.5703 64.7278 23.5546 60.988 23.7009C53.985 27.7486 46.9739 27.0171 39.9709 23.7009C37.0942 22.9775 35.3927 24.9119 34.5955 28.8946C34.5955 33.5356 33.8722 40.9888 35.9434 45.069C37.0202 47.1903 38.2449 47.8162 39.5518 50.5065C41.8778 55.2856 45.6506 57.9678 49.5301 58.488L48.7657 56.4154ZM48.963 45.8005C45.5684 46.3938 46.3245 48.889 41.245 45.7111H40.3573C41.1299 46.8002 42.1327 48.7102 43.4231 49.1491C46.6944 50.2545 48.5109 49.3117 50.3356 47.0603C52.1603 49.3117 53.9686 50.2545 57.2481 49.1491C58.5386 48.7184 59.5413 46.8083 60.314 45.7111H59.4263C54.2316 48.9622 55.1357 46.28 51.4699 45.768C50.6397 45.646 49.7931 45.6542 48.963 45.8005ZM49.3082 38.583C46.3739 38.2091 43.4313 38.2822 40.497 38.583C43.5875 36.1446 47.952 34.8442 49.3082 38.583ZM51.6918 38.583C54.6261 38.079 57.5687 38.1603 60.503 38.583C57.4125 36.1446 53.048 34.8442 51.6918 38.583ZM46.9492 30.894C47.8205 31.6499 48.5602 32.5521 49.226 33.5356C46.6533 31.9832 44.0642 30.7315 41.3847 30.6177C41.8203 30.0487 42.3053 29.6749 42.8395 29.4798C44.3683 28.9433 45.8478 29.9431 46.9492 30.894ZM54.0508 30.894C53.1795 31.6499 52.4398 32.5521 51.774 33.5356C54.3467 31.9832 56.9358 30.7315 59.6153 30.6177C59.1797 30.0487 58.6947 29.6749 58.1605 29.4798C56.6317 28.9433 55.1522 29.9431 54.0508 30.894Z" fill="#8397C7"/>
</svg>
