<svg width="30" height="30" viewBox="0 0 30 30" fill="none" xmlns="http://www.w3.org/2000/svg">
<path d="M26.0741 10.4623L17.4116 3.53731C16.0741 2.46231 13.9116 2.46231 12.5866 3.52481L3.92411 10.4623C2.94911 11.2373 2.32411 12.8747 2.53661 14.0997L4.19911 24.0497C4.49911 25.8247 6.19911 27.2622 7.99911 27.2622H21.9991C23.7866 27.2622 25.4991 25.8123 25.7991 24.0497L27.4616 14.0997C27.6616 12.8747 27.0366 11.2373 26.0741 10.4623ZM14.9991 19.3747C13.2741 19.3747 11.8741 17.9747 11.8741 16.2497C11.8741 14.5247 13.2741 13.1247 14.9991 13.1247C16.7241 13.1247 18.1241 14.5247 18.1241 16.2497C18.1241 17.9747 16.7241 19.3747 14.9991 19.3747Z" fill="#F0F0F0"/>
</svg>
