<svg width="60" height="60" viewBox="0 0 60 60" fill="none" xmlns="http://www.w3.org/2000/svg">
<rect width="60" height="60" rx="30" fill="white"/>
<path d="M30.4005 27.175C30.1505 27.15 29.8505 27.15 29.5755 27.175C23.6254 26.975 18.9004 22.1 18.9004 16.1C18.9004 9.975 23.8504 5 30.0005 5C36.1255 5 41.1005 9.975 41.1005 16.1C41.0755 22.1 36.3505 26.975 30.4005 27.175Z" stroke="#292D32" stroke-width="2.2" stroke-linecap="round" stroke-linejoin="round"/>
<path d="M17.8998 36.4C11.8498 40.45 11.8498 47.05 17.8998 51.075C24.7748 55.675 36.0499 55.675 42.9249 51.075C48.9749 47.025 48.9749 40.425 42.9249 36.4C36.0749 31.825 24.7998 31.825 17.8998 36.4Z" stroke="#292D32" stroke-width="2.2" stroke-linecap="round" stroke-linejoin="round"/>
</svg>
