<svg width="30" height="30" viewBox="0 0 30 30" fill="none" xmlns="http://www.w3.org/2000/svg">
<path d="M15 11.0946C12.8496 11.0946 11.0947 12.8495 11.0947 14.9999C11.0947 17.1503 12.8496 18.9052 15 18.9052C17.1504 18.9052 18.9053 17.1503 18.9053 14.9999C18.9053 12.8495 17.1504 11.0946 15 11.0946ZM26.7129 14.9999C26.7129 13.3827 26.7276 11.7802 26.6368 10.1659C26.5459 8.29091 26.1182 6.62685 24.7471 5.25575C23.3731 3.88173 21.7119 3.45693 19.8369 3.36611C18.2198 3.27529 16.6172 3.28993 15.003 3.28993C13.3858 3.28993 11.7832 3.27529 10.169 3.36611C8.29397 3.45693 6.6299 3.88466 5.25881 5.25575C3.88478 6.62978 3.45998 8.29091 3.36916 10.1659C3.27834 11.7831 3.29299 13.3856 3.29299 14.9999C3.29299 16.6141 3.27834 18.2196 3.36916 19.8339C3.45998 21.7089 3.88771 23.3729 5.25881 24.744C6.63283 26.1181 8.29397 26.5429 10.169 26.6337C11.7862 26.7245 13.3887 26.7099 15.003 26.7099C16.6201 26.7099 18.2227 26.7245 19.8369 26.6337C21.7119 26.5429 23.376 26.1151 24.7471 24.744C26.1211 23.37 26.5459 21.7089 26.6368 19.8339C26.7305 18.2196 26.7129 16.6171 26.7129 14.9999ZM15 21.0087C11.6748 21.0087 8.99123 18.3251 8.99123 14.9999C8.99123 11.6747 11.6748 8.9911 15 8.9911C18.3252 8.9911 21.0088 11.6747 21.0088 14.9999C21.0088 18.3251 18.3252 21.0087 15 21.0087ZM21.2549 10.1483C20.4785 10.1483 19.8516 9.52138 19.8516 8.74501C19.8516 7.96864 20.4785 7.34169 21.2549 7.34169C22.0313 7.34169 22.6582 7.96864 22.6582 8.74501C22.6585 8.92936 22.6223 9.11195 22.5519 9.28231C22.4814 9.45267 22.3781 9.60747 22.2477 9.73782C22.1174 9.86818 21.9626 9.97154 21.7922 10.042C21.6219 10.1124 21.4393 10.1486 21.2549 10.1483Z" fill="white"/>
</svg>
