<svg width="257" height="54" viewBox="0 0 257 54" fill="none" xmlns="http://www.w3.org/2000/svg">
<g clip-path="url(#clip0_93_31)">
<path fill-rule="evenodd" clip-rule="evenodd" d="M-8.30516e-07 27C-1.28913e-06 37.4918 8.5082 46 19 46C29.4918 46 38 37.4918 38 27C38 16.5082 29.4918 8 19 8C8.5082 8 -3.71905e-07 16.5082 -8.30516e-07 27Z" fill="white"/>
<path fill-rule="evenodd" clip-rule="evenodd" d="M20.159 37.6514L20.9342 36.8762C12.1638 28.0678 17.0392 18.298 18.411 15.9648C18.1528 16.0474 17.9183 16.1908 17.727 16.3828L8.3106 25.7992C8.15071 25.9588 8.02386 26.1484 7.93731 26.357C7.85076 26.5657 7.80621 26.7893 7.80621 27.0152C7.80621 27.2411 7.85076 27.4648 7.93731 27.6735C8.02386 27.8821 8.15071 28.0717 8.3106 28.2312L17.727 37.6476C17.8861 37.8082 18.0754 37.9357 18.2839 38.0228C18.4925 38.11 18.7162 38.155 18.9422 38.1554C19.1682 38.1557 19.3921 38.1114 19.6009 38.0249C19.8097 37.9384 19.9994 37.8115 20.159 37.6514Z" fill="#FF499E"/>
<path fill-rule="evenodd" clip-rule="evenodd" d="M27.4436 30.3667L29.5754 28.2349C29.7353 28.0753 29.8621 27.8858 29.9487 27.6771C30.0352 27.4685 30.0798 27.2448 30.0798 27.0189C30.0798 26.793 30.0352 26.5693 29.9487 26.3607C29.8621 26.152 29.7353 25.9625 29.5754 25.8029L27.5386 23.7661C25.2206 27.0417 27.0522 29.8423 27.4436 30.3667Z" fill="#FF499E"/>
<path fill-rule="evenodd" clip-rule="evenodd" d="M21.413 36.3973L23.845 33.9653C17.1418 26.7377 21.4586 19.4873 22.173 18.4005L21.6372 17.8647C21.6334 17.872 21.6282 17.8784 21.622 17.8837C14.0296 27.3533 20.7252 35.5955 21.413 36.3973Z" fill="#FF499E"/>
<path fill-rule="evenodd" clip-rule="evenodd" d="M25.346 21.5698L24.7608 20.9846C19.6384 26.6048 23.997 32.7798 24.4378 33.3764L26.923 30.8912C22.6404 26.4414 24.8786 22.3146 25.346 21.5698Z" fill="#FF499E"/>
</g>
<path d="M60.64 42.6C67.84 42.6 73.6 37.8 74.68 30.68H70C69.2 35.32 65.44 38.64 60.68 38.64C55 38.64 51 34.04 51 27.6C51 21.24 55 16.64 60.68 16.64C65.44 16.64 69.2 19.92 70 24.56H74.68C73.6 17.48 67.84 12.68 60.64 12.68C52.64 12.68 46.44 19.16 46.44 27.6C46.44 36.08 52.64 42.6 60.64 42.6ZM88.0206 31.24L98.3806 13.28H93.9006L85.9406 27.12L78.0606 13.28H73.2606L83.5806 31.24V42H88.0206V31.24ZM120.923 33.76C120.923 30.48 119.003 28.04 115.443 27.04C118.203 25.84 119.843 23.52 119.843 20.8C119.843 15.96 116.363 13.28 110.563 13.28H100.603V42H111.123C117.083 42 120.923 39 120.923 33.76ZM110.283 16.8C113.763 16.8 115.643 18.44 115.643 21.12C115.643 23.8 113.763 25.44 110.283 25.44H104.643V16.8H110.283ZM110.843 28.96C114.603 28.96 116.723 30.72 116.723 33.64C116.723 36.68 114.603 38.48 110.843 38.48H104.643V28.96H110.843ZM142.993 38.16H129.193V29.12H141.513V25.28H129.193V17.12H142.713V13.28H124.793V42H142.993V38.16ZM151.353 42V31.2H156.633L163.793 42H169.073L161.273 30.56C165.633 29.52 168.233 26.36 168.233 22.24C168.233 16.52 164.273 13.28 157.673 13.28H146.953V42H151.353ZM151.353 16.96H157.393C161.473 16.96 163.793 18.8 163.793 22.24C163.793 25.72 161.473 27.52 157.393 27.52H151.353V16.96Z" fill="#F0F0F0"/>
<path d="M176.52 42V29.12H191.08V42H195.48V13.28H191.08V25.28H176.52V13.28H172.12V42H176.52ZM204.929 42V13.28H200.529V42H204.929ZM233.394 13.28H228.994L220.514 36.88L212.154 13.28H207.434L217.994 42H222.834L233.394 13.28ZM254.142 38.16H240.342V29.12H252.662V25.28H240.342V17.12H253.862V13.28H235.942V42H254.142V38.16Z" fill="#FF499E"/>
<defs>
<clipPath id="clip0_93_31">
<rect width="38" height="38" fill="white" transform="matrix(-4.37114e-08 1 1 4.37114e-08 0 8)"/>
</clipPath>
</defs>
</svg>
