<svg width="286" height="62" viewBox="0 0 286 62" fill="none" xmlns="http://www.w3.org/2000/svg">
<g clip-path="url(#clip0_73_78)">
<path d="M286 28.0491V22.9444H279.754V15.0085L279.544 15.0742L273.677 16.896L273.561 16.9316V22.9447H264.302V19.5949C264.302 18.0351 264.645 16.8415 265.323 16.0455C265.995 15.259 266.957 14.8591 268.184 14.8591C269.066 14.8591 269.98 15.07 270.899 15.4859L271.129 15.5903V10.2144L271.021 10.1739C270.163 9.86113 268.997 9.70361 267.552 9.70361C265.73 9.70361 264.074 10.106 262.631 10.9034C261.186 11.702 260.05 12.842 259.254 14.2914C258.461 15.7391 258.058 17.4112 258.058 19.2616V22.9444H253.709V28.0491H258.058V49.5543H264.302V28.0491H273.561V41.7153C273.561 47.3436 276.177 50.1959 281.336 50.1959C282.184 50.1959 283.076 50.0951 283.987 49.8977C284.915 49.6949 285.546 49.4925 285.918 49.2763L286 49.2269V44.075L285.746 44.2454C285.407 44.4746 284.985 44.6618 284.491 44.8011C283.994 44.9429 283.579 45.014 283.257 45.014C282.049 45.014 281.155 44.6835 280.6 44.0312C280.039 43.373 279.754 42.2221 279.754 40.6121V28.0491H286ZM239.766 45.0148C237.5 45.0148 235.714 44.2522 234.455 42.75C233.188 41.2402 232.546 39.0877 232.546 36.3528C232.546 33.5312 233.188 31.3228 234.455 29.7863C235.715 28.26 237.485 27.4853 239.716 27.4853C241.88 27.4853 243.604 28.2252 244.838 29.6855C246.079 31.1535 246.708 33.3442 246.708 36.1987C246.708 39.0882 246.116 41.3078 244.949 42.7926C243.789 44.2662 242.046 45.0148 239.766 45.0148ZM240.044 22.3034C235.721 22.3034 232.287 23.5891 229.838 26.1249C227.391 28.6609 226.151 32.1705 226.151 36.5569C226.151 40.7232 227.362 44.0744 229.75 46.5159C232.139 48.9582 235.39 50.1953 239.412 50.1953C243.603 50.1953 246.968 48.8916 249.416 46.3207C251.863 43.7527 253.102 40.2762 253.102 35.9923C253.102 31.7608 251.939 28.3846 249.644 25.9595C247.347 23.5332 244.117 22.3034 240.044 22.3034ZM216.084 22.3034C213.143 22.3034 210.711 23.0668 208.852 24.5721C206.983 26.0864 206.034 28.0724 206.034 30.4757C206.034 31.7249 206.239 32.8345 206.642 33.7757C207.047 34.72 207.674 35.5514 208.508 36.2492C209.335 36.9413 210.611 37.6663 212.303 38.404C213.725 38.9978 214.785 39.5001 215.459 39.8961C216.117 40.2841 216.585 40.6741 216.848 41.054C217.105 41.4258 217.235 41.9346 217.235 42.5624C217.235 44.3502 215.916 45.22 213.201 45.22C212.195 45.22 211.046 45.0067 209.788 44.586C208.539 44.1718 207.36 43.5651 206.293 42.7873L206.034 42.5986V48.6993L206.129 48.7442C207.012 49.1581 208.126 49.5071 209.439 49.7817C210.749 50.0566 211.94 50.1964 212.974 50.1964C216.165 50.1964 218.735 49.4293 220.61 47.915C222.497 46.3904 223.454 44.3575 223.454 41.8711C223.454 40.0774 222.939 38.5393 221.924 37.2988C220.916 36.0684 219.167 34.9388 216.727 33.9403C214.783 33.1485 213.538 32.4911 213.024 31.9866C212.529 31.4991 212.277 30.8098 212.277 29.9368C212.277 29.163 212.588 28.543 213.225 28.041C213.867 27.5364 214.761 27.2797 215.882 27.2797C216.922 27.2797 217.987 27.4465 219.045 27.7734C220.103 28.1002 221.032 28.5379 221.807 29.0734L222.062 29.2503V23.4633L221.965 23.4206C221.249 23.1092 220.306 22.8427 219.16 22.6265C218.019 22.4117 216.984 22.3034 216.084 22.3034ZM189.758 45.0148C187.492 45.0148 185.705 44.2522 184.446 42.75C183.179 41.2402 182.538 39.0882 182.538 36.3528C182.538 33.5312 183.18 31.3228 184.448 29.7863C185.706 28.26 187.476 27.4853 189.708 27.4853C191.872 27.4853 193.595 28.2252 194.83 29.6855C196.071 31.1535 196.7 33.3442 196.7 36.1987C196.7 39.0882 196.108 41.3078 194.94 42.7926C193.781 44.2662 192.038 45.0148 189.758 45.0148ZM190.036 22.3034C185.712 22.3034 182.277 23.5891 179.83 26.1249C177.383 28.6609 176.142 32.1705 176.142 36.5569C176.142 40.7249 177.354 44.0744 179.743 46.5159C182.131 48.9582 185.382 50.1953 189.404 50.1953C193.594 50.1953 196.96 48.8916 199.408 46.3207C201.854 43.7527 203.095 40.2762 203.095 35.9923C203.095 31.7608 201.931 28.3846 199.635 25.9595C197.338 23.5332 194.108 22.3034 190.036 22.3034ZM166.665 27.5527V22.9444H160.497V49.5537H166.665V35.942C166.665 33.6275 167.182 31.726 168.202 30.2898C169.209 28.8707 170.552 28.1516 172.191 28.1516C172.746 28.1516 173.37 28.2445 174.045 28.4284C174.714 28.6112 175.198 28.8097 175.483 29.0187L175.743 29.2093V22.8989L175.643 22.8554C175.068 22.6077 174.256 22.4828 173.228 22.4828C171.678 22.4828 170.291 22.9882 169.103 23.9833C168.06 24.858 167.307 26.0572 166.73 27.5527H166.665ZM149.453 22.3034C146.623 22.3034 144.099 22.9191 141.953 24.133C139.802 25.3496 138.138 27.0866 137.006 29.2952C135.88 31.4986 135.307 34.0723 135.307 36.9425C135.307 39.4566 135.862 41.7638 136.958 43.7973C138.055 45.8341 139.608 47.4276 141.574 48.5328C143.536 49.6365 145.805 50.1962 148.316 50.1962C151.247 50.1962 153.749 49.6014 155.756 48.4286L155.837 48.3814V42.6469L155.578 42.839C154.669 43.5109 153.653 44.0472 152.56 44.4336C151.47 44.8196 150.477 45.0148 149.605 45.0148C147.185 45.0148 145.242 44.2463 143.832 42.7312C142.419 41.2141 141.702 39.0837 141.702 36.4031C141.702 33.7055 142.45 31.5205 143.922 29.9082C145.391 28.3007 147.337 27.4853 149.707 27.4853C151.734 27.4853 153.709 28.1819 155.578 29.5578L155.837 29.7484V23.7062L155.753 23.6584C155.05 23.2589 154.091 22.929 152.9 22.6788C151.714 22.4291 150.555 22.3034 149.453 22.3034ZM131.06 22.9447H124.892V49.5537H131.06V22.9447ZM128.039 11.609C127.024 11.609 126.139 11.9597 125.411 12.6547C124.681 13.3516 124.311 14.2291 124.311 15.2646C124.311 16.2839 124.677 17.1453 125.4 17.8237C126.119 18.5001 127.007 18.8429 128.039 18.8429C129.072 18.8429 129.963 18.5001 130.69 17.8248C131.422 17.1453 131.794 16.2841 131.794 15.2646C131.794 14.2653 131.432 13.3968 130.721 12.6828C130.009 11.9701 129.107 11.609 128.039 11.609ZM112.651 20.9814V49.5537H118.945V12.4236H110.234L99.1613 40.0028L88.4159 12.4236H79.3499V49.5534H85.2647V20.9786H85.4678L96.8146 49.5537H101.278L112.448 20.9814H112.651Z" fill="#8397C7"/>
<path d="M29.0132 29.4614H0V0.0158691H29.0132V29.4614Z" fill="#8397C7"/>
<path d="M61.0469 29.4614H32.0343V0.0158691H61.0469V29.4614Z" fill="#8397C7"/>
<path d="M29.0123 61.9841H0V32.5388H29.0123V61.9841Z" fill="#8397C7"/>
<path d="M61.0469 61.9841H32.0343V32.5388H61.0469V61.9841Z" fill="#8397C7"/>
</g>
<defs>
<clipPath id="clip0_73_78">
<rect width="286" height="62" fill="white"/>
</clipPath>
</defs>
</svg>
