<svg width="30" height="30" viewBox="0 0 30 30" fill="none" xmlns="http://www.w3.org/2000/svg">
<path d="M23.75 20V8.125C23.75 6.75 22.625 5.625 21.25 5.625H15.625" stroke="#F0F0F0" stroke-width="1.5" stroke-linecap="round" stroke-linejoin="round"/>
<path d="M18.75 2.5L15 5.625L18.75 8.75" stroke="#F0F0F0" stroke-width="1.5" stroke-linecap="round" stroke-linejoin="round"/>
<path d="M6.25 11.25V20" stroke="#F0F0F0" stroke-width="1.5" stroke-linecap="round" stroke-linejoin="round"/>
<path d="M6.5625 10.625C8.80616 10.625 10.625 8.80616 10.625 6.5625C10.625 4.31884 8.80616 2.5 6.5625 2.5C4.31884 2.5 2.5 4.31884 2.5 6.5625C2.5 8.80616 4.31884 10.625 6.5625 10.625Z" stroke="#F0F0F0" stroke-width="1.5" stroke-linecap="round" stroke-linejoin="round"/>
<path d="M6.25 27.5C8.32106 27.5 10 25.8211 10 23.75C10 21.6789 8.32106 20 6.25 20C4.17894 20 2.5 21.6789 2.5 23.75C2.5 25.8211 4.17894 27.5 6.25 27.5Z" stroke="#F0F0F0" stroke-width="1.5" stroke-linecap="round" stroke-linejoin="round"/>
<path d="M23.75 27.5C25.8211 27.5 27.5 25.8211 27.5 23.75C27.5 21.6789 25.8211 20 23.75 20C21.6789 20 20 21.6789 20 23.75C20 25.8211 21.6789 27.5 23.75 27.5Z" stroke="#F0F0F0" stroke-width="1.5" stroke-linecap="round" stroke-linejoin="round"/>
</svg>
