<svg width="30" height="30" viewBox="0 0 30 30" fill="none" xmlns="http://www.w3.org/2000/svg">
<path d="M15 1.875C7.75195 1.875 1.875 7.75195 1.875 15C1.875 22.248 7.75195 28.125 15 28.125C22.248 28.125 28.125 22.248 28.125 15C28.125 7.75195 22.248 1.875 15 1.875ZM21.3076 11.7686C21.3164 11.9062 21.3164 12.0498 21.3164 12.1904C21.3164 16.4912 18.041 21.4453 12.0557 21.4453C10.21 21.4453 8.49902 20.9092 7.05762 19.9863C7.32129 20.0156 7.57324 20.0273 7.84277 20.0273C9.36621 20.0273 10.7666 19.5117 11.8828 18.6387C10.4531 18.6094 9.25195 17.6719 8.8418 16.3828C9.34277 16.4561 9.79395 16.4561 10.3096 16.3242C9.57342 16.1747 8.91174 15.7749 8.43696 15.1927C7.96218 14.6106 7.70357 13.8821 7.70508 13.1309V13.0898C8.13574 13.333 8.64258 13.4824 9.17285 13.5029C8.72708 13.2058 8.3615 12.8034 8.10853 12.3311C7.85556 11.8589 7.72302 11.3316 7.72266 10.7959C7.72266 10.1895 7.88086 9.63574 8.16504 9.15527C8.98214 10.1611 10.0017 10.9838 11.1576 11.5698C12.3135 12.1558 13.5797 12.4921 14.874 12.5566C14.4141 10.3447 16.0664 8.55469 18.0527 8.55469C18.9902 8.55469 19.834 8.94727 20.4287 9.58008C21.1641 9.44238 21.8672 9.16699 22.4941 8.79785C22.251 9.55078 21.7412 10.1865 21.0645 10.5879C21.7207 10.5176 22.3535 10.3359 22.9395 10.0811C22.4971 10.7314 21.9434 11.3086 21.3076 11.7686Z" fill="white"/>
</svg>
