<svg width="30" height="22" viewBox="0 0 30 22" fill="none" xmlns="http://www.w3.org/2000/svg">
<path d="M29.375 4.13385C29.2051 3.52788 28.8742 2.97928 28.4175 2.54635C27.9478 2.1001 27.3722 1.78089 26.745 1.61885C24.3975 1.00009 14.9925 1.0001 14.9925 1.0001C11.0716 0.955486 7.15176 1.15169 3.25498 1.58759C2.62772 1.76161 2.05318 2.08795 1.58248 2.5376C1.11998 2.9826 0.784978 3.53135 0.609978 4.1326C0.189594 6.39728 -0.014657 8.69678 -2.19782e-05 11.0001C-0.015022 13.3013 0.188728 15.6001 0.609978 17.8676C0.781228 18.4663 1.11498 19.0126 1.57873 19.4538C2.04248 19.8951 2.61998 20.2138 3.25498 20.3826C5.63373 21.0001 14.9925 21.0001 14.9925 21.0001C18.9183 21.0448 22.8432 20.8486 26.745 20.4126C27.3722 20.2506 27.9478 19.9313 28.4175 19.4851C28.8741 19.0523 29.2046 18.5036 29.3737 17.8976C29.8051 15.6338 30.0148 13.3333 30 11.0288C30.0324 8.7146 29.8229 6.4033 29.375 4.1326V4.13385ZM12.0025 15.2801V6.72135L19.8275 11.0013L12.0025 15.2801Z" fill="white"/>
</svg>
