<svg width="38" height="38" viewBox="0 0 38 38" fill="none" xmlns="http://www.w3.org/2000/svg">
<path fill-rule="evenodd" clip-rule="evenodd" d="M-8.30516e-07 19C-1.28913e-06 29.4918 8.5082 38 19 38C29.4918 38 38 29.4918 38 19C38 8.5082 29.4918 1.28913e-06 19 8.30516e-07C8.5082 3.71905e-07 -3.71905e-07 8.5082 -8.30516e-07 19Z" fill="white"/>
<path fill-rule="evenodd" clip-rule="evenodd" d="M20.159 29.6514L20.9342 28.8762C12.1638 20.0678 17.0392 10.298 18.411 7.96484C18.1528 8.04744 17.9183 8.19078 17.727 8.38284L8.3106 17.7992C8.15071 17.9588 8.02386 18.1484 7.93731 18.357C7.85076 18.5657 7.80621 18.7893 7.80621 19.0152C7.80621 19.2411 7.85076 19.4648 7.93731 19.6735C8.02386 19.8821 8.15071 20.0717 8.3106 20.2312L17.727 29.6476C17.8861 29.8082 18.0754 29.9357 18.2839 30.0228C18.4925 30.11 18.7162 30.155 18.9422 30.1554C19.1682 30.1557 19.3921 30.1114 19.6009 30.0249C19.8097 29.9384 19.9994 29.8115 20.159 29.6514V29.6514Z" fill="#FF499E"/>
<path fill-rule="evenodd" clip-rule="evenodd" d="M27.4436 22.3667L29.5754 20.2349C29.7353 20.0753 29.8621 19.8858 29.9487 19.6771C30.0352 19.4685 30.0798 19.2448 30.0798 19.0189C30.0798 18.793 30.0352 18.5693 29.9487 18.3607C29.8621 18.152 29.7353 17.9625 29.5754 17.8029L27.5386 15.7661C25.2206 19.0417 27.0522 21.8423 27.4436 22.3667V22.3667Z" fill="#FF499E"/>
<path fill-rule="evenodd" clip-rule="evenodd" d="M21.413 28.3973L23.845 25.9653C17.1418 18.7377 21.4586 11.4873 22.173 10.4005L21.6372 9.86475C21.6334 9.87196 21.6282 9.8784 21.622 9.88375C14.0296 19.3533 20.7252 27.5955 21.413 28.3973Z" fill="#FF499E"/>
<path fill-rule="evenodd" clip-rule="evenodd" d="M25.346 13.5698L24.7608 12.9846C19.6384 18.6048 23.997 24.7798 24.4378 25.3764L26.923 22.8912C22.6404 18.4414 24.8786 14.3146 25.346 13.5698Z" fill="#FF499E"/>
</svg>
